HIERARCHY
ROOT Hips
{
	OFFSET 0.000000 0.000000 0.000000
	CHANNELS 6 Xposition Yposition Zposition Zrotation Xrotation Yrotation
	JOINT LeftUpLeg
	{
		OFFSET 4.065250 -3.907320 0.417110
		CHANNELS 3 Zrotation Xrotation Yrotation
		JOINT LeftLeg
		{
			OFFSET 0.000230 -18.482100 0.003670
			CHANNELS 3 Zrotation Xrotation Yrotation
			JOINT LeftFoot
			{
				OFFSET -0.001720 -15.289800 -0.026290
				CHANNELS 3 Zrotation Xrotation Yrotation
				JOINT LeftToeBase
				{
					OFFSET 0.367430 -3.191310 5.542870
					CHANNELS 3 Zrotation Xrotation Yrotation
					JOINT LeftToeBase2
					{
						OFFSET 0.087510 0.048490 1.367580
						CHANNELS 3 Zrotation Xrotation Yrotation
						JOINT LeftToeBase3
						{
							OFFSET 0.074840 0.067850 1.167070
						}
					}
				}
			}
		}
	}
	JOINT RightUpLeg
	{
		OFFSET -4.065260 -3.907310 0.417120
		CHANNELS 3 Zrotation Xrotation Yrotation
		JOINT RightLeg
		{
			OFFSET -0.000290 -18.482100 0.004400
			CHANNELS 3 Zrotation Xrotation Yrotation
			JOINT RightFoot
			{
				OFFSET 0.001600 -15.289800 -0.025690
				CHANNELS 3 Zrotation Xrotation Yrotation
				JOINT RightToeBase
				{
					OFFSET -0.354200 -3.191090 5.543860
					CHANNELS 3 Zrotation Xrotation Yrotation
					JOINT RightToeBase2
					{
						OFFSET -0.084240 0.048540 1.367780
						CHANNELS 3 Zrotation Xrotation Yrotation
						JOINT RightToeBase3
						{
							OFFSET -0.072050 0.067900 1.167250
						}
					}
				}
			}
		}
	}
	JOINT Spine
	{
		OFFSET 0.000010 4.465170 -0.102240
		CHANNELS 3 Zrotation Xrotation Yrotation
		JOINT Spine1
		{
			OFFSET 0.000010 4.462120 -0.182400
			CHANNELS 3 Zrotation Xrotation Yrotation
			JOINT Spine2
			{
				OFFSET 0.000000 4.379370 -0.881000
				CHANNELS 3 Zrotation Xrotation Yrotation
				JOINT Spine3
				{
					OFFSET 0.000010 4.682860 0.214140
					CHANNELS 3 Zrotation Xrotation Yrotation
					JOINT Neck
					{
						OFFSET 0.000000 1.769640 0.824540
						CHANNELS 3 Zrotation Xrotation Yrotation
						JOINT Head
						{
							OFFSET 0.000000 1.696100 0.931450
							CHANNELS 3 Zrotation Xrotation Yrotation
							JOINT Head_End
							{
								OFFSET 0.000010 7.837500 1.526030
							}
						}
					}
					JOINT LeftShoulder
					{
						OFFSET 1.193810 -0.758810 -0.027680
						CHANNELS 3 Zrotation Xrotation Yrotation
						JOINT LeftArm
						{
							OFFSET 5.187790 -0.000020 0.000010
							CHANNELS 3 Zrotation Xrotation Yrotation
							JOINT LeftForeArm
							{
								OFFSET 12.736400 -0.000040 0.000020
								CHANNELS 3 Zrotation Xrotation Yrotation
								JOINT LeftHand
								{
									OFFSET 9.214520 -0.000020 0.000010
									CHANNELS 3 Zrotation Xrotation Yrotation
								}
							}
						}
					}
					JOINT RightShoulder
					{
						OFFSET -1.193810 -0.758810 -0.027670
						CHANNELS 3 Zrotation Xrotation Yrotation
						JOINT RightArm
						{
							OFFSET -5.187790 0.000010 -0.000010
							CHANNELS 3 Zrotation Xrotation Yrotation
							JOINT RightForeArm
							{
								OFFSET -12.736400 0.000030 -0.000020
								CHANNELS 3 Zrotation Xrotation Yrotation
								JOINT RightHand
								{
									OFFSET -9.214520 0.000020 -0.000010
									CHANNELS 3 Zrotation Xrotation Yrotation
								}
							}
						}
					}
				}
			}
		}
	}
}
MOTION
Frames: 15
Frame Time: 0.016667
-0.957002 39.391506 5.822906 -0.045818 7.130298 -2.949578 5.123550 7.636519 -2.290325  -0.192075 10.753707 0.393326  -3.405363 -24.516272 9.026590  -0.000000 0.000000 -0.000000  -0.000000 0.000000 -0.000000   -3.223893 8.948657 -4.710380  -0.206251 9.158201 0.402904  0.253908 -24.671576 0.177237  0.000000 -0.000000 -0.000000  -0.000000 0.000000 -0.000000   2.001752 -1.070601 -0.431492  0.526111 1.304451 -0.126588  0.046226 1.325374 -0.057004  -1.148189 3.517510 -0.058556  -0.875137 2.658502 -1.774256  -0.528502 -16.412596 -2.403308   -6.717022 1.117623 0.511458  -68.465477 11.394944 5.109177  0.953560 1.064459 -32.749027  12.902096 -12.365029 -4.682981  4.833492 1.858489 3.147377  66.158478 4.318691 -3.200320  1.216749 -1.290500 38.632374  6.103155 2.935390 -3.909621 
-0.992589 39.244808 6.266983 -0.136326 7.692945 -3.252130 5.174818 7.562904 -2.488671  -0.208230 11.406671 0.417178  -3.325954 -25.462957 9.660883  -0.000000 0.000000 -0.000000  -0.000000 0.000000 -0.000000   -3.125544 9.115153 -4.508069  -0.203359 9.058935 0.407212  0.284463 -25.257877 0.257780  0.000000 -0.000000 -0.000000  -0.000000 0.000000 -0.000000   2.207801 -0.979176 -0.397673  0.601109 1.296061 -0.102441  0.097027 1.238374 -0.025418  -1.094972 3.265601 -0.010406  -0.827054 2.102725 -1.919484  -0.759522 -16.647789 -2.535994   -6.500860 1.044943 0.859182  -69.161377 10.482544 6.069748  1.013127 1.100229 -34.320229  13.011594 -11.694931 -5.516543  4.484486 1.895229 3.283894  66.467995 4.304521 -3.703268  1.238329 -1.301550 39.150784  5.909479 2.865273 -4.077812 
-1.027302 39.102108 6.713964 -0.284018 8.261088 -3.496941 5.323174 6.784396 -2.277610  -0.264685 13.599699 0.465205  -3.901044 -27.080326 9.714118  -0.000000 0.000000 -0.000000  -0.000000 0.000000 -0.000000   -2.943149 9.424666 -4.244272  -0.193481 8.646810 0.404024  0.258563 -25.618586 0.201034  0.000000 -0.000000 -0.000000  -0.000000 0.000000 -0.000000   2.446289 -0.841740 -0.302066  0.708659 1.310359 -0.044781  0.191348 1.175563 0.044278  -0.909191 3.057590 0.099380  -0.856718 1.506558 -2.127770  -1.020288 -17.039383 -2.757140   -6.420554 0.952190 1.073060  -69.837463 9.782773 6.834585  1.069428 1.132028 -35.782333  13.127094 -11.071529 -6.573410  3.970504 1.960477 3.639823  66.752289 4.275732 -4.349210  1.258359 -1.311579 39.629578  5.693350 3.291580 -4.071880 
-1.063438 38.960209 7.167186 -0.457587 8.816129 -3.718327 5.559358 5.191710 -1.934478  -0.375764 17.530804 0.547393  -4.756597 -28.782717 9.429687  -0.000000 0.000000 -0.000000  -0.000000 0.000000 -0.000000   -2.725431 9.846470 -4.011062  -0.178922 8.037391 0.395199  0.208606 -25.820391 0.133726  0.000000 -0.000000 -0.000000  -0.000000 0.000000 -0.000000   2.653590 -0.637836 -0.155823  0.829695 1.354618 0.038277  0.325294 1.136862 0.141788  -0.568879 2.883669 0.251966  -1.047290 0.790472 -2.393367  -1.300606 -17.506880 -3.065835   -6.414701 0.874186 1.193374  -70.513771 9.262908 7.437781  1.117088 1.157509 -37.004444  13.332090 -10.564425 -7.841306  3.355691 2.039456 4.112536  66.973793 4.308009 -4.939601  1.282589 -1.323429 40.206268  5.181197 3.817284 -3.917758 
-1.104710 38.824909 7.629126 -0.591489 9.342284 -3.952268 5.861965 2.361291 -1.699052  -0.601476 24.145367 0.703995  -5.702161 -30.403723 8.903378  -0.000000 0.000000 -0.000000  -0.000000 0.000000 -0.000000   -2.543459 10.394972 -3.879056  -0.159235 7.213063 0.379830  0.147940 -25.833502 0.147049  0.000000 -0.000000 -0.000000  -0.000000 0.000000 -0.000000   2.733876 -0.353263 0.041603  0.941360 1.436576 0.143117  0.499408 1.127590 0.261245  -0.019719 2.750397 0.435363  -1.561414 -0.116460 -2.714174  -1.551747 -17.992676 -3.480799   -6.459569 0.844163 1.249207  -71.195480 8.932956 7.855609  1.149518 1.174099 -37.828064  13.800677 -10.291314 -9.436371  2.664245 2.129976 4.656892  67.109093 4.465992 -5.318961  1.314018 -1.338369 40.950363  4.033458 4.309256 -3.548209 
-1.148418 38.682507 8.100434 -0.787153 9.841722 -4.183288 6.309226 -1.277925 -1.442905  -0.936075 32.309162 0.940806  -6.562343 -31.275551 8.210999  -0.000000 0.000000 -0.000000  -0.000000 0.000000 -0.000000   -2.298683 11.022766 -3.848092  -0.138093 6.316498 0.361989  0.101530 -25.760704 0.257702  0.000000 -0.000000 -0.000000  -0.000000 0.000000 -0.000000   2.773058 0.013975 0.283271  1.067593 1.555574 0.269375  0.717161 1.148119 0.405124  0.695955 2.659945 0.654573  -2.229274 -1.239440 -3.081480  -1.864063 -18.474575 -3.960624   -6.551486 0.844442 1.221611  -71.881172 8.799377 8.140315  1.170579 1.183420 -38.301075  14.264874 -10.139208 -11.059613  1.934070 2.214126 5.248069  67.095802 4.752614 -5.459202  1.360897 -1.359729 42.051842  2.523151 4.304300 -3.101764 
-1.193111 38.524109 8.582975 -1.122024 10.306349 -4.408980 6.997740 -5.474917 -1.132849  -1.405870 41.267693 1.274147  -7.149979 -30.088366 7.389254  -0.000000 0.000000 -0.000000  -0.000000 0.000000 -0.000000   -1.907402 11.719864 -3.931046  -0.118081 5.415760 0.344362  0.089958 -25.646910 0.492955  0.000000 -0.000000 -0.000000  -0.000000 0.000000 -0.000000   2.820128 0.473957 0.570418  1.226131 1.716981 0.419004  0.984914 1.207267 0.577695  1.565802 2.631002 0.916900  -2.997957 -2.682450 -3.502976  -2.300336 -18.889778 -4.486321   -6.679343 0.870494 1.095567  -72.577164 8.896066 8.282034  1.172850 1.184360 -38.349701  14.510788 -10.050704 -12.539319  1.186431 2.275307 5.860726  66.888618 5.226784 -5.313619  1.430486 -1.389458 43.669716  0.749609 3.095537 -2.820495 
-1.242752 38.351513 9.081268 -1.560711 10.751034 -4.651636 7.863569 -9.927156 -0.695549  -2.098812 50.453758 1.808761  -7.014109 -28.394400 6.800324  -0.000000 0.000000 -0.000000  -0.000000 0.000000 -0.000000   -1.411389 12.493556 -4.153557  -0.100923 4.471664 0.329985  0.131454 -25.498510 0.909721  0.000000 -0.000000 -0.000000  -0.000000 0.000000 -0.000000   2.830110 1.025059 0.890115  1.403880 1.914979 0.581133  1.285653 1.289675 0.767011  2.544664 2.625230 1.202574  -3.687310 -4.279079 -3.930225  -2.883076 -19.303673 -5.005850   -6.840271 0.916136 0.888350  -73.264961 9.150576 8.443441  1.165731 1.181050 -38.180515  14.544598 -9.974384 -13.610039  0.500159 2.308068 6.451276  66.413628 5.785290 -4.782952  1.530664 -1.428268 45.966763  -1.103524 1.281054 -2.327167 
-1.295932 38.152813 9.592105 -2.168530 11.181305 -4.911150 8.933327 -14.204655 -0.006906  -3.098638 58.992500 2.657346  -5.323877 -27.226166 6.938314  -0.000000 0.000000 -0.000000  -0.000000 0.000000 -0.000000   -0.750990 13.250358 -4.557137  -0.089913 3.702494 0.321245  0.258150 -25.454203 1.577032  0.000000 -0.000000 -0.000000  -0.000000 0.000000 -0.000000   2.856689 1.670303 1.220301  1.611568 2.146837 0.747106  1.619081 1.385695 0.965727  3.598430 2.619250 1.498493  -3.987953 -5.933385 -4.333877  -3.769910 -19.702978 -5.470943   -7.016840 0.971708 0.609508  -73.939072 9.520720 8.745122  1.158880 1.177520 -38.001011  14.261818 -9.666848 -13.803090  -0.027046 2.302161 6.973781  65.568260 6.375856 -3.769878  1.671032 -1.475088 49.130825  -2.749587 -0.865750 -1.252399 
-1.350931 37.926514 10.120307 -2.808119 11.620149 -5.215047 10.158523 -18.367449 0.844188  -4.640604 66.788918 4.053843  -3.455944 -26.697632 7.236743  -0.000000 0.000000 -0.000000  -0.000000 0.000000 -0.000000   -0.096725 13.809567 -5.122566  -0.082381 3.459075 0.315818  0.483656 -25.730183 2.497484  0.000000 -0.000000 -0.000000  -0.000000 0.000000 -0.000000   2.798364 2.398566 1.563679  1.815948 2.405415 0.913363  1.961979 1.483784 1.165808  4.703473 2.583642 1.793902  -4.198767 -7.539083 -4.661550  -4.616729 -20.264168 -5.851646   -7.241147 1.043106 0.267208  -74.566559 9.949485 9.303758  1.148051 1.172220 -37.733913  13.777131 -9.645482 -13.556516  -0.427635 2.256333 7.410164  64.395180 6.904630 -2.222284  1.857058 -1.524267 53.245949  -4.398361 -3.074265 0.186607 
-1.401259 37.673817 10.670096 -3.449996 12.089888 -5.561759 11.542712 -22.278263 1.780949  -7.069372 73.385490 6.361199  -2.668388 -27.491755 7.262739  -0.000000 0.000000 -0.000000  -0.000000 0.000000 -0.000000   0.516929 14.362868 -5.884514  -0.077183 3.284911 0.308037  0.848741 -26.098877 3.731495  0.000000 -0.000000 -0.000000  -0.000000 0.000000 -0.000000   2.668328 3.201281 1.895040  2.006109 2.683093 1.071240  2.312048 1.567445 1.356398  5.857620 2.477656 2.070833  -4.458774 -8.963115 -4.821450  -5.110151 -21.258841 -6.083127   -7.555840 1.124395 -0.119449  -75.110374 10.360775 10.262843  1.127101 1.162691 -37.259430  13.152338 -10.449351 -13.104328  -0.663775 2.177335 7.720743  62.848709 7.268351 -0.035736  2.105774 -1.568348 58.648762  -6.397660 -5.093105 1.977753 
-1.446529 37.395821 11.248465 -4.020697 12.612204 -5.934726 12.968604 -26.086657 2.849386  -11.302190 78.868248 10.491998  -2.314603 -28.835415 7.135468  -0.000000 0.000000 -0.000000  -0.000000 0.000000 -0.000000   1.027427 14.903368 -6.786402  -0.073257 3.149689 0.296196  1.337118 -26.556875 5.185007  0.000000 -0.000000 -0.000000  -0.000000 0.000000 -0.000000   2.464233 4.044935 2.224458  2.165190 2.967032 1.228730  2.645589 1.629796 1.541898  7.003557 2.299441 2.342633  -4.895721 -10.193721 -4.892445  -5.319977 -22.389927 -6.225461   -7.911137 1.241323 -0.573808  -75.575371 10.769076 11.662312  1.113441 1.155610 -36.912022  12.440546 -11.772016 -12.591832  -0.850335 2.030800 7.924479  61.097126 7.444641 2.730052  2.391072 -1.589759 64.769203  -8.039434 -6.592361 3.877129 
-1.487173 37.092518 11.861529 -4.428391 13.216058 -6.331789 14.349802 -29.939440 4.121258  -19.725664 83.212608 18.830471  -2.187489 -30.104912 6.789923  -0.000000 0.000000 -0.000000  -0.000000 0.000000 -0.000000   1.331469 15.430565 -7.818430  -0.069145 3.000230 0.278692  1.960777 -27.112661 6.852447  0.000000 -0.000000 -0.000000  -0.000000 0.000000 -0.000000   2.139892 4.902722 2.553188  2.272023 3.244691 1.385849  2.944060 1.657878 1.719138  8.111145 2.028149 2.608082  -5.754921 -11.170633 -4.895549  -5.156871 -23.455927 -6.285426   -8.313952 1.416448 -1.091265  -75.943680 11.148675 13.611367  1.107940 1.152720 -36.771008  11.509965 -13.550780 -12.147230  -1.034418 1.788547 7.997196  59.241924 7.386796 6.165586  2.692909 -1.579232 71.230446  -8.565886 -7.089417 5.746264 
-1.520571 36.767124 12.514005 -4.636206 13.895252 -6.724539 15.600511 -33.744743 5.508860  -38.339005 86.176323 37.388798  -2.285433 -31.614500 6.334823  -0.000000 0.000000 -0.000000  -0.000000 0.000000 -0.000000   1.415644 15.934867 -8.852779  -0.065087 2.858220 0.257821  2.676481 -27.731358 8.531116  0.000000 -0.000000 -0.000000  -0.000000 0.000000 -0.000000   1.730058 5.749373 2.901626  2.314137 3.508082 1.557069  3.175424 1.654181 1.899118  9.083193 1.681343 2.892291  -6.851816 -11.904951 -4.914588  -4.775796 -24.442032 -6.350116   -8.631609 1.653304 -1.736666  -76.242683 11.543975 16.044136  1.135898 1.167199 -37.482956  10.974537 -15.592458 -12.053506  -1.383446 1.438144 8.029039  57.442219 7.069285 9.925775  2.996069 -1.533894 77.788139  -8.483797 -6.788141 7.246579 
-1.545398 36.417221 13.210748 -4.580193 14.669241 -7.107014 16.571930 -37.522743 6.985586  -70.458321 87.428253 69.495110  -2.358725 -33.660965 6.083987  -0.000000 0.000000 -0.000000  -0.000000 0.000000 -0.000000   1.208314 16.399868 -9.791496  -0.061533 2.726559 0.238133  3.465415 -28.448851 10.100291  0.000000 -0.000000 -0.000000  -0.000000 0.000000 -0.000000   1.245373 6.557576 3.300673  2.273493 3.744014 1.761076  3.308261 1.608353 2.096687  9.838820 1.248219 3.229047  -8.122365 -12.391568 -4.994205  -4.345429 -25.202650 -6.462543   -8.753192 1.982078 -2.567873  -76.507378 11.998170 19.021095  1.225504 1.210727 -39.735756  11.561061 -17.783852 -12.930341  -2.082833 0.934939 8.107706  55.904400 6.425146 13.844133  3.277151 -1.459136 84.010071  -7.751122 -5.570943 7.956933 
